<?xml version="1.0" ?><svg id="Layer_1" style="fill:#ffffff;enable-background:new 0 0 32 32;" version="1.1" viewBox="0 0 32 32" xml:space="preserve" xmlns="http://www.w3.org/2000/svg" xmlns:xlink="http://www.w3.org/1999/xlink"><g><g><path d="M21,22h-8c-0.5527344,0-1-0.4477539-1-1s0.4472656-1,1-1h7v-7c0-0.5522461,0.4472656-1,1-1s1,0.4477539,1,1v8    C22,21.5522461,21.5527344,22,21,22z"/></g><g><path d="M21,22c-0.2558594,0-0.5117188-0.0976563-0.7070313-0.2929688l-18-18c-0.390625-0.390625-0.390625-1.0234375,0-1.4140625    s1.0234375-0.390625,1.4140625,0l18,18c0.390625,0.390625,0.390625,1.0234375,0,1.4140625    C21.5117188,21.9023438,21.2558594,22,21,22z"/></g><g><path d="M29,30H3c-0.5527344,0-1-0.4477539-1-1V16c0-0.5522461,0.4472656-1,1-1s1,0.4477539,1,1v12h24V4H16    c-0.5527344,0-1-0.4477539-1-1s0.4472656-1,1-1h13c0.5527344,0,1,0.4477539,1,1v26C30,29.5522461,29.5527344,30,29,30z"/></g></g></svg>